<svg xmlns="http://www.w3.org/2000/svg" width="1035.83" height="310.262"><defs><path id="a" d="M187.508-58.903h605.721V-5.89H187.508z"/></defs><path d="M264.39 286.882c-21.22 0-37.86-16.54-37.86-37.55 0-21.01 16.64-37.54 37.86-37.54s38 16.53 38 37.54c0 21.01-16.78 37.55-38 37.55zm0-65c-15.08 0-26.73 11.86-26.73 27.46 0 15.6 11.65 27.46 26.73 27.46s26.83-12 26.83-27.46-11.65-27.47-26.83-27.47zM312.75 232.792H323v5.1a24.16 24.16 0 0116.23-5.93c15 0 26.73 12 26.73 27.25s-11.76 27.35-26.94 27.35a26.7 26.7 0 01-15.91-5.2v25.9h-10.4zm10.4 14.56v23.93c3.32 3.84 8.84 6.24 14.76 6.24 10.2 0 17.89-7.8 17.89-18.21s-7.8-18.3-17.89-18.3c-6.03 0-11.33 2.29-14.76 6.34zM401.46 286.672c-15.6 0-27.77-12-27.77-27.46 0-15.29 11.65-27.25 26.52-27.25 14.56 0 25.59 12.07 25.59 27.67v3H384a17.85 17.85 0 0017.89 15.19 20.61 20.61 0 0013.4-4.63l6.66 6.55a31.62 31.62 0 01-20.49 6.93zm-17.37-31.83h31.41c-1.56-8.11-7.8-14.14-15.5-14.14-8 0-14.35 5.72-15.91 14.14zM435.67 232.792h10.4v5.31a21.81 21.81 0 0115.93-6.35c12.16 0 20.69 8.43 20.69 20.7v33.28h-10.4v-31.54c0-8.32-5.09-13.42-13.1-13.42a15 15 0 00-13.11 6.87v38.06h-10.4zM496 265.972c7.91 7.7 16 11.44 25.07 11.44 10.5 0 17.68-5 17.68-12.17 0-6.44-4.16-9.67-14.77-11.44l-12.17-2c-13.31-2.19-19.86-8.43-19.86-18.93 0-12.69 10.6-20.91 26.83-20.91a48.88 48.88 0 0129.33 9.88l-6 8.32c-7.9-6-15.7-8.94-23.81-8.94-9.47 0-15.81 4.37-15.81 10.82 0 5.92 3.64 8.73 13 10.29l11.7 1.86c15.4 2.5 22.36 8.84 22.36 20.18 0 13.42-11.65 22.36-29 22.36a43.86 43.86 0 01-31.2-13.1zM558.39 212.932l10.4-2.29v27.46a21.81 21.81 0 0115.91-6.35c12.17 0 20.7 8.43 20.7 20.7v33.28H595v-31.54c0-8.32-5.1-13.42-13.11-13.42a14.94 14.94 0 00-13.1 6.87v38.06h-10.4zM616.21 217.822a6.39 6.39 0 016.35-6.45 6.45 6.45 0 110 12.9 6.4 6.4 0 01-6.35-6.45zm11.55 67.91h-10.4v-52.94h10.4zM647.93 232.792v-8c0-11 6.35-17.06 18-17.06a27 27 0 017.48.94v9a21 21 0 00-6.55-.93c-5.72 0-8.53 2.6-8.53 8.21v7.8h15.08v8.74h-15.08v44.2h-10.4v-44.2h-12.27v-8.7zM689.22 241.532H678v-8.74h11.23v-13.52l10.29-2.49v16h15.61v8.74h-15.62v28.71c0 5.4 2.19 7.38 7.8 7.38a20.37 20.37 0 007.6-1.25v8.74a34.66 34.66 0 01-9.88 1.56c-10.3 0-15.81-4.89-15.81-14zM780.53 286.882a37.55 37.55 0 1137.47-37.55 37.2 37.2 0 01-37.47 37.55zm0-67.71c-16.64 0-29.43 13.1-29.43 30.16 0 17.06 12.79 30.16 29.43 30.16s29.33-13.21 29.33-30.16-12.79-30.14-29.33-30.14zM829.1 233.632h7.69v6.13c4.06-4.78 9.68-7.17 16.43-7.17 11.86 0 20.08 8.21 20.08 20.17v33h-7.59v-31.44c0-9.25-5.62-15-14.57-15a16.2 16.2 0 00-14.35 8v38.38h-7.69zM893.89 285.732h-7.7v-72.8l7.7-1.77zM905.64 218.442a5.22 5.22 0 015.2-5.2 5.15 5.15 0 015.2 5.2 5.22 5.22 0 01-5.2 5.2 5.28 5.28 0 01-5.2-5.2zm9.05 67.29H907v-52.1h7.7zM927.79 233.632h7.7v6.13c4-4.78 9.67-7.17 16.43-7.17 11.86 0 20.07 8.21 20.07 20.17v33h-7.59v-31.44c0-9.25-5.62-15-14.56-15a16.2 16.2 0 00-14.35 8v38.38h-7.7zM1009.33 286.672a26.56 26.56 0 01-26.84-27c0-15 11.34-26.84 25.69-26.84 13.84 0 24.65 11.86 24.65 26.84v2.39h-42.74c1.14 10.3 9.25 17.89 19.55 17.89 5.41 0 10.82-1.77 14.35-4.79l4.79 5.1a30.84 30.84 0 01-19.45 6.41zm-19-30.79h34.84c-1.36-9.25-8.53-16.32-17.17-16.32-9.07 0-16.25 6.75-17.7 16.32z"/><path d="M130 151.192c12.51 0 30.61-2.58 30.61-17.46a14 14 0 00-.31-3.42l-7.45-32.36c-1.72-7.12-3.23-10.35-15.73-16.6-9.73-4.97-30.86-13.16-37.12-13.16-5.82 0-7.55 7.54-14.45 7.54-6.68 0-11.64-5.6-17.89-5.6-6 0-9.91 4.09-12.93 12.5 0 0-8.41 23.72-9.49 27.16a6.43 6.43 0 00-.24 1.94c0 9.22 36.33 39.46 85 39.46m32.55-11.42c1.73 8.19 1.73 9.05 1.73 10.13 0 14-15.74 21.77-36.43 21.77-46.85-.01-87.77-27.38-87.77-45.48a18.45 18.45 0 011.51-7.33c-16.82.85-38.59 3.87-38.59 23.05 0 31.48 74.59 70.28 133.65 70.28 45.28 0 56.7-20.48 56.7-36.65 0-12.72-11-27.16-30.83-35.78" fill="#e00"/><path d="M162.52 139.762c1.73 8.19 1.73 9.05 1.73 10.13 0 14-15.74 21.77-36.43 21.77-46.82 0-87.74-27.37-87.74-45.47a18.45 18.45 0 011.51-7.33l3.66-9.06a6.43 6.43 0 00-.25 1.93c0 9.22 36.33 39.46 85 39.46 12.51 0 30.61-2.58 30.61-17.46a14 14 0 00-.31-3.42zM582.24 160.492c0 11.89 7.15 17.67 20.19 17.67a52.11 52.11 0 0011.89-1.68v-13.78a24.84 24.84 0 01-7.68 1.16c-5.37 0-7.36-1.68-7.36-6.73v-21.14h15.56v-14.2h-15.56v-18l-17 3.68v14.32H571v14.2h11.25zm-53 .32c0-3.68 3.69-5.47 9.26-5.47a43.12 43.12 0 0110.1 1.26v7.15a21.51 21.51 0 01-10.6 2.63c-5.46 0-8.73-2.1-8.73-5.57m5.2 17.56c6 0 10.84-1.26 15.36-4.31v3.37h16.82v-35.66c0-13.56-9.14-21-24.39-21-8.52 0-16.94 2-26 6.1l6.1 12.52c6.52-2.74 12-4.42 16.83-4.42 7 0 10.62 2.73 10.62 8.31v2.73a49.53 49.53 0 00-12.62-1.58c-14.31 0-22.93 6-22.93 16.73 0 9.78 7.78 17.24 20.19 17.24m-92.44-.94h18.09v-28.85h30.29v28.82h18.09v-73.62h-18.05v28.29h-30.29v-28.29h-18.09zm-68.89-27.9c0-8 6.31-14.1 14.62-14.1a17.22 17.22 0 0111.78 4.32v19.41a16.36 16.36 0 01-11.78 4.42c-8.2 0-14.62-6.1-14.62-14.09m26.61 27.87h16.83v-77.26l-17 3.68v20.93a28.3 28.3 0 00-14.2-3.68c-16.19 0-28.92 12.51-28.92 28.5a28.25 28.25 0 0028.36 28.63 25.12 25.12 0 0014.93-4.83zm-77.19-42.7c5.36 0 9.88 3.47 11.67 8.83H311c1.68-5.57 5.89-8.83 11.57-8.83m-28.74 14.97c0 16.2 13.25 28.82 30.28 28.82 9.36 0 16.2-2.53 23.25-8.42l-11.26-10c-2.63 2.74-6.52 4.21-11.14 4.21a14.39 14.39 0 01-13.68-8.83h39.65v-4.2c0-17.67-11.88-30.39-28.08-30.39a28.57 28.57 0 00-29 28.81m-29.36-30.39c6 0 9.36 3.78 9.36 8.31 0 4.53-3.37 8.31-9.36 8.31h-17.88v-16.62zm-36 58.16h18.09v-26.82h13.77l13.89 26.82h20.19l-16.2-29.45a22.27 22.27 0 0013.88-20.72c0-13.25-10.41-23.45-26-23.45h-37.59z"/><text style="line-height:1.25;-inkscape-font-specification:'sans-serif, Normal';font-variant-ligatures:normal;font-variant-caps:normal;font-variant-numeric:normal;font-variant-east-asian:normal;white-space:pre;shape-inside:url(#a)" transform="matrix(1.41502 0 0 1.41502 -42.188 78.186)" font-weight="400" font-size="42.667" font-family="sans-serif"><tspan x="187.508" y="-19.976"><tspan style="-inkscape-font-specification:'sans-serif, Normal';font-variant-ligatures:normal;font-variant-caps:normal;font-variant-numeric:normal;font-variant-east-asian:normal">Powered by</tspan></tspan></text></svg>